<?xml version="1.0" encoding="utf-8"?>
<!-- Generator: Adobe Illustrator 16.0.0, SVG Export Plug-In . SVG Version: 6.00 Build 0)  -->
<!DOCTYPE svg PUBLIC "-//W3C//DTD SVG 1.1//EN" "http://www.w3.org/Graphics/SVG/1.1/DTD/svg11.dtd">
<svg version="1.1" xmlns="http://www.w3.org/2000/svg" xmlns:xlink="http://www.w3.org/1999/xlink" x="0px" y="0px" width="3018px"
	 height="1082px" viewBox="0 0 3018 1082" enable-background="new 0 0 3018 1082" xml:space="preserve">
<g id="Layer_1" display="none">
	
		<radialGradient id="SVGID_1_" cx="573.4292" cy="-203.9556" r="1834.6388" gradientTransform="matrix(0.9996 0 0 0.7276 -1.5582 148.1082)" gradientUnits="userSpaceOnUse">
		<stop  offset="0" style="stop-color:#FFF33B"/>
		<stop  offset="0.0129" style="stop-color:#FFE029"/>
		<stop  offset="0.0282" style="stop-color:#FFD218"/>
		<stop  offset="0.0441" style="stop-color:#FEC90F"/>
		<stop  offset="0.0609" style="stop-color:#FDC70C"/>
		<stop  offset="0.16" style="stop-color:#F4953C"/>
		<stop  offset="0.2835" style="stop-color:#F3903F"/>
		<stop  offset="0.5876" style="stop-color:#ED683C"/>
		<stop  offset="1" style="stop-color:#E93E3A"/>
	</radialGradient>
	<rect x="583.177" y="0.5" display="inline" fill="url(#SVGID_1_)" width="1920" height="1080"/>
</g>
<g id="Layer_16">
	<g id="Layer_20" display="none">
		<polygon display="inline" fill="#AD1F24" points="1910,148 2503,690 2506,1088 1411,1081 1294,974 1484,598 1704,224 		"/>
	</g>
	<g id="Layer_20_copy" opacity="0.3">
		<g>
			<path d="M1908.124,148.692c1.031-0.381,2.554-0.101,3.383,0.622l1076.986,939.371c0.829,0.723,0.606,1.31-0.493,1.303
				l-1575-8.977c-1.1-0.007-2.664-0.619-3.476-1.361L1295.476,975.35c-0.812-0.742-1.07-2.153-0.574-3.135l188.196-372.43
				c0.496-0.981,1.358-2.561,1.916-3.509l217.972-370.553c0.558-0.948,1.858-2.035,2.89-2.416L1908.124,148.692z"/>
		</g>
	</g>
	<path fill="#FFFFFF" d="M1677.191,194.585c0,0-25.046-68.924,22.998-89.803c47.977-20.883,62.646,4.167,73.088,18.798
		c10.441,14.632,50.096,10.439,58.422-14.631c8.393-25.049,62.65-14.608,77.283,27.154c14.639,41.767-14.633,79.366-75.168,75.201
		c-43.883-4.197-240.154,256.81-311.128,373.783c-71.043,116.972-139.947,258.923-137.854,300.689
		c2.111,41.769,6.277,87.74-33.434,98.182c-39.657,10.441-75.147-12.538-77.255-45.972c-4.168-14.61-73.079,10.439-96.038-47.986
		c-22.986-58.481,41.767-81.48,81.428-87.756c39.662-6.213,198.387-225.483,252.711-311.131
		C1566.498,405.465,1683.475,225.76,1677.191,194.585z"/>
</g>
<g id="Layer_4_copy_3">
	<g>
		<path stroke="#000000" stroke-width="5" stroke-miterlimit="10" d="M1128.122,257.27v1.231c0,0-11.387,1.333-11.387-10.361
			c0,0,0-15.388,0-16.824c-12.208,3.898-19.901,2.873-29.237,0.308c-8.514,11.285-12.515,16.824-20.209,26.877h-5.232
			c3.693-5.232,10.053-13.438,21.338-28.416c-17.85-7.899-14.362-34.571,2.564-41.239c5.129-2.052,13.438-2.052,16.824-1.949
			c5.642,0.411,12.002,1.744,16.927,5.643c0.923-2.052,4.309-4.617,4.411-4.617c-1.744,2.052-2.359,5.54-2.359,6.976
			c0,0,0,0.513,0,0.718v50.472C1121.762,246.088,1121.659,257.27,1128.122,257.27z M1112.529,191.41
			c-4.616-3.693-12.208-3.693-16.824-3.283c-4.514,0.82-8.412,1.846-11.49,4.719c-9.746,9.232-11.387,27.083,0.821,35.187
			C1093.858,215.928,1102.988,204.028,1112.529,191.41z M1116.735,195c-0.308-0.411-0.513-0.513-1.026-1.026
			c-1.333,2.052-2.975,4.206-4.616,6.258c-6.668,9.13-14.362,19.388-22.466,29.852c3.488,1.436,6.258,2.359,10.771,2.667
			c5.745,0,12.618-0.82,17.337-4.411C1116.735,228.34,1116.735,204.644,1116.735,195z"/>
	</g>
	<g>
		<path d="M1181.286,273.688h53.591l-9.1,15.167h-44.491v146.954c0,0,1.686,41.458-49.546,40.446c0,0-44.154,2.359-44.154-42.806
			h16.516c0,7.752,0,39.098,29.324,39.098c0,0,30.671,3.034,30.671-37.413v-146.28c-7.415-1.011-33.031,0-41.458,19.212l-9.1-5.393
			c0,0,7.752-27.638,50.558-28.986v-54.939c0,0-2.022-40.446,49.546-39.772c0,0,43.817-2.359,43.817,42.806h-16.516
			c0-7.752,0-39.098-29.323-39.098c0,0-30.335-3.033-30.335,37.413V273.688z"/>
		<path d="M1276.669,342.783c0,20.223-2.696,64.714,21.571,68.421v3.371c-37.076,0-37.413-34.379-37.413-60.669v-75.836v-65.388
			c-0.674-27.638-5.73-39.772-5.73-39.772c8.089,7.415,14.156,23.256,14.156,23.256l12.134-8.089
			c-4.045,6.404-4.719,20.897-4.719,24.604v64.377V342.783z"/>
		<path d="M1353.175,412.216v2.696c-20.56,0.674-38.761-7.752-38.761-30.672c0-3.37,0-85.274,0-85.274
			c0-4.719,1.011-48.198-16.853-49.546v-3.034c35.728-1.348,33.705,36.402,33.705,61.344v70.781
			C1331.267,411.542,1353.175,412.216,1353.175,412.216z M1320.818,186.054h16.853l-18.538,30.672h-16.853L1320.818,186.054z"/>
		<path d="M1393.618,486.03l-32.694-25.953h13.482l29.66,22.583c0,0,18.875-0.674,18.875-46.513v-22.919
			c0-6.404,0.337-10.786,0.674-12.134c-2.022,4.045-6.404,8.427-11.797,13.819c-42.131,1.011-54.265-21.234-54.265-61.006v-77.522
			l27.975-29.998c42.468,0,54.265,21.571,54.265,61.344v128.417C1439.794,470.863,1432.042,486.704,1393.618,486.03z
			 M1397.326,251.105c-0.337,1.011-23.594,26.627-23.594,26.627v65.388c0,24.605-1.348,55.613,26.29,67.748
			c0-1.011,22.919-26.627,22.919-26.627v-66.399C1422.941,294.248,1424.29,263.913,1397.326,251.105z"/>
		<path d="M1558.771,414.575c-37.75,2.022-37.413-34.379-37.413-60.669v-71.455c0-26.29-18.875-31.683-18.875-31.683l-24.268,26.29
			v65.725c0.337,16.516-3.034,66.736,21.571,68.421v3.371c-38.087,2.022-38.424-33.705-38.424-60.669v-76.173v-65.388
			c0-28.313-4.719-40.109-4.719-40.109c8.089,7.078,14.156,23.256,14.156,23.256l12.471-8.089
			c-5.056,6.404-5.056,20.897-5.056,24.942v32.694c0,6.067,0,14.156-1.011,15.167l12.471-13.482
			c28.986-1.686,48.536,5.393,48.536,35.727v60.333c0,32.02,1.348,66.399,20.56,68.421V414.575z"/>
		<path d="M1607.977,414.575c-38.087,2.022-37.413-31.009-37.413-60.669v-107.52h-11.122l-6.404-14.156h17.526v-18.875
			c-1.011-27.976-5.393-40.109-5.393-40.109c7.752,7.078,14.156,22.919,14.156,22.919l12.134-8.089
			c-4.045,6.404-4.719,21.234-4.719,25.279v18.875h12.471l7.415,14.156h-19.886v96.734c0,48.873,4.719,61.681,21.234,68.421V414.575
			z"/>
	</g>
	<g>
		<path d="M1293.089,537.485v60.325l-21.486,22.259c-32.356,0.774-41.417-16.84-42.453-46.582v-60.325l22.004-22.517
			C1283.768,490.387,1293.61,507.203,1293.089,537.485z M1260.474,494.258c-0.774,0.516-18.382,19.937-18.382,19.937v50.476
			c0,18.387-1.034,43.231,20.194,52.045c0-0.517,17.861-19.938,17.861-19.938v-51.01
			C1280.146,527.137,1281.442,503.573,1260.474,494.258z"/>
		<path d="M1364.336,462.241c-13.441-10.696-26.976-12.759-26.976-12.759l-13.458,14.226v15.808h9.323l5.435,11.129h-14.758v74.284
			c0,16.558-1.548,50.495,16.047,52.817v2.323c-28.468,1.548-28.983-25.872-28.983-46.582v-82.842h-8.289l-5.178-11.129h13.466
			v-16.582l18.121-17.862c15.527-1.298,24.866-3.587,48.064,17.169H1364.336z"/>
	</g>
	<g>
		<path d="M1400.254,650.005h68.329l-11.604,19.341h-56.725v187.416c0,0,2.148,52.859-63.199,51.579c0,0-56.304,3.019-56.304-54.589
			h21.063c0,9.886,0,49.863,37.389,49.863c0,0,39.129,3.866,39.129-47.713V669.346c-9.469-1.292-42.137,0-52.88,24.508
			l-11.604-6.889c0,0,9.885-35.241,64.483-36.96v-70.067c0,0-2.578-51.566,63.177-50.707c0,0,55.896-3.008,55.896,54.575h-21.089
			c0-9.884,0-49.849-37.386-49.849c0,0-38.677-3.867-38.677,47.699V650.005z"/>
		<path d="M1611.748,826.67v3.869c0,0-31.833,5.156-42.146-22.352l-27.502,17.193c0,0-20.627,12.466-45.122-0.859
			c0,0-21.492-13.326-21.492-52c0,0,0-24.928,2.148-32.665l85.092-38.267v-14.195c0,0,3.008-61.024-25.784-68.332
			c0,0-28.361,2.151-28.361,42.976h-21.917c0-33.09,21.917-47.274,52.428-47.274c39.104,0,44.691,32.662,45.121,66.613v70.514
			c0,0,0,39.969,4.728,54.148C1588.939,806.039,1596.277,826.67,1611.748,826.67z M1562.727,711.049l-63.6,28.808l-0.859,23.21
			c0,0-3.438,53.289,22.346,63.604l45.121-30.084C1565.734,796.586,1561.437,795.727,1562.727,711.049z"/>
		<path d="M1748.434,825.381v4.299c-44.705,5.156-47.713-40.398-47.713-77.36v-90.712c0-33.519-25.803-40.394-25.803-40.394
			l-29.222,33.519v83.398c0,18.486-0.43,87.25,27.503,87.25v4.299c-43.402,5.156-48.129-39.109-48.989-77.36v-96.728l-21.057-32.23
			h15.9c13.321,17.189,14.61,17.621,16.33,22.777c0,0-0.43-5.588,24.493-30.088c34.381-3.006,61.055,6.021,61.055,45.557v76.523
			C1720.932,756.617,1719.213,822.373,1748.434,825.381z"/>
		<path d="M1806.897,622.071l-28.81,32.232v83.827c0,43.844,3.867,52.869,3.867,52.869c9.887,36.531,44.718,34.811,44.718,34.811
			v3.869c-50.733,2.148-62.339-30.516-62.339-30.516c-9.023-15.039-8.164-46.845-8.164-46.845v-99.306l35.672-37.391
			c42.133-5.173,55.455,25.359,54.164,45.556h-20.631C1825.375,631.098,1806.897,622.071,1806.897,622.071z"/>
		<path d="M1904.902,919.956l-201.406-71.784l-26.131,25.089l-8.941-3.154l33.867-32.963l215.938,78.952
			c0,0,25.787-1.299,25.787-59.334c0-35.246,0-35.246,0-35.246c0-6.018,0.854-11.176,0.854-11.176
			c-0.854,2.148-3.003,5.158-17.621,18.91c-35.675,3.008-59.747-6.877-61.036-46.416l0.859-76.947
			c0-16.344,3.005-79.086-20.208-85.965v-4.299c42.991,0,41.272,45.125,41.702,78.646l-1.289,89.424
			c-0.859,33.521,24.933,40.4,24.933,40.4l31.806-32.234c0,0,0-87.691,0-88.558c0-17.196,2.148-79.94-20.632-83.38v-4.299
			c41.259,0,40.399,45.984,40.399,78.646v78.68v83.813C1963.784,903.615,1946.597,923.839,1904.902,919.956z"/>
	</g>
</g>
</svg>
