<?xml version="1.0" encoding="utf-8"?>
<!-- Generator: Adobe Illustrator 16.0.0, SVG Export Plug-In . SVG Version: 6.00 Build 0)  -->
<!DOCTYPE svg PUBLIC "-//W3C//DTD SVG 1.1//EN" "http://www.w3.org/Graphics/SVG/1.1/DTD/svg11.dtd">
<svg version="1.1" id="Layer_1" xmlns="http://www.w3.org/2000/svg" xmlns:xlink="http://www.w3.org/1999/xlink" x="0px" y="0px"
	 width="872px" height="464px" viewBox="0 0 872 464" enable-background="new 0 0 872 464" xml:space="preserve">
<g>
	<polygon stroke="#000000" stroke-width="3" stroke-miterlimit="10" points="726.5,132.5 161.5,132.5 161.5,341.5 258.194,341.5 
		238.312,410.818 316.569,341.5 347.443,341.5 327.562,410.818 405.818,341.5 726.5,341.5 	"/>
	<g>
		<path fill="#FFFFFF" d="M317.123,207.5v54.413c0,13.241-10.552,24-23.793,24h-17.379c-3.517,0-6.621-3.104-6.621-6.621v-89.171
			c0-3.724,3.104-6.621,6.621-6.621h17.379C306.571,183.5,317.123,194.259,317.123,207.5z M303.882,207.5
			c0-6-4.759-10.759-10.552-10.759h-10.758v75.723h10.758c5.793,0,10.552-4.758,10.552-10.551V207.5z"/>
		<path fill="#FFFFFF" d="M382.087,217.431c0,6.828-2.689,12.828-7.448,17.172c4.759,4.345,7.448,10.551,7.448,17.379v9.931
			c0,13.241-10.758,24-23.793,24h-17.379c-3.724,0-6.621-3.104-6.621-6.621v-89.171c0-3.724,2.896-6.621,6.621-6.621h17.379
			c13.035,0,23.793,10.759,23.793,24V217.431z M368.846,207.5c0-6-4.759-10.759-10.552-10.759h-10.758v31.241h10.758
			c5.793,0,10.552-4.759,10.552-10.552V207.5z M358.294,241.224h-10.758v31.241h10.758c5.793,0,10.552-4.758,10.552-10.551v-9.931
			C368.846,245.982,364.087,241.224,358.294,241.224z"/>
		<path fill="#FFFFFF" d="M433.603,275.982v6.621c0,1.655-1.448,3.31-3.31,3.31h-24.414c-3.724,0-6.621-3.104-6.621-6.621v-92.481
			c0-1.862,1.448-3.311,3.31-3.311h6.621c1.655,0,3.311,1.448,3.311,3.311v85.861h17.793
			C432.154,272.672,433.603,274.12,433.603,275.982z"/>
		<path fill="#FFFFFF" d="M478.913,214.328v-7.034c0-5.793-4.759-10.552-10.552-10.552s-10.551,4.759-10.551,10.552
			c0,2.689,0,2.689,0.621,3.517l28.758,38.068c4.965,6.621,4.965,6.621,4.965,13.241c0,13.035-10.758,23.793-23.793,23.793
			c-13.034,0-23.792-10.758-23.792-23.793v-7.034c0-1.862,1.448-3.311,3.31-3.311h6.621c1.862,0,3.311,1.448,3.311,3.311v7.034
			c0,5.793,4.758,10.552,10.551,10.552s10.552-4.759,10.552-10.552c0-2.689,0-2.689-0.621-3.517l-28.758-38.068
			c-4.965-6.621-4.965-6.621-4.965-13.241c0-13.034,10.758-23.793,23.792-23.793c13.035,0,23.793,10.759,23.793,23.793v7.034
			c0,1.862-1.448,3.311-3.311,3.311h-6.621C480.361,217.638,478.913,216.19,478.913,214.328z"/>
		<path fill="#FFFFFF" d="M555.05,207.293v9.931c0,13.241-10.758,24-23.793,24h-10.758v41.379c0,1.655-1.448,3.31-3.311,3.31h-6.621
			c-1.655,0-3.31-1.655-3.31-3.31v-41.379v-13.241v-41.172c0-1.862,1.655-3.311,3.31-3.311h20.689
			C544.292,183.5,555.05,194.259,555.05,207.293z M541.809,207.293c0-5.793-4.759-10.552-10.552-10.552h-10.758v31.241h10.758
			c5.793,0,10.552-4.759,10.552-10.759V207.293z"/>
		<path fill="#FFFFFF" d="M615.67,217.224c0,6.828-2.896,13.035-7.448,17.379c4.552,4.345,7.448,10.345,7.448,17.172v30.828
			c0,1.655-1.448,3.31-3.311,3.31h-6.621c-1.862,0-3.31-1.655-3.31-3.31v-30.828c0-5.793-4.759-10.551-10.758-10.551h-10.552v41.379
			c0,1.655-1.448,3.31-3.311,3.31h-6.621c-1.862,0-3.31-1.655-3.31-3.31v-41.379v-13.241v-41.172c0-1.862,1.448-3.311,3.31-3.311
			h6.621c1.862,0,3.311,1.448,3.311,3.311v41.172h10.552c6,0,10.758-4.759,10.758-10.759v-30.413c0-1.862,1.448-3.311,3.31-3.311
			h6.621c1.862,0,3.311,1.448,3.311,3.311V217.224z"/>
	</g>
</g>
</svg>
