<?xml version="1.0" encoding="UTF-8" standalone="no"?>
<!-- Generator: Adobe Illustrator 16.0.0, SVG Export Plug-In . SVG Version: 6.00 Build 0)  -->

<svg
   xmlns:dc="http://purl.org/dc/elements/1.1/"
   xmlns:cc="http://creativecommons.org/ns#"
   xmlns:rdf="http://www.w3.org/1999/02/22-rdf-syntax-ns#"
   xmlns:svg="http://www.w3.org/2000/svg"
   xmlns="http://www.w3.org/2000/svg"
   xmlns:sodipodi="http://sodipodi.sourceforge.net/DTD/sodipodi-0.dtd"
   xmlns:inkscape="http://www.inkscape.org/namespaces/inkscape"
   version="1.1"
   id="Layer_1"
   x="0px"
   y="0px"
   width="560"
   height="286.65613"
   viewBox="0 0 560 286.65612"
   enable-background="new 0 0 758 420.342"
   xml:space="preserve"
   inkscape:version="0.92.2 5c3e80d, 2017-08-06"
   sodipodi:docname="DBLSPKwhite.svg"><metadata
     id="metadata3123"><rdf:RDF><cc:Work
         rdf:about=""><dc:format>image/svg+xml</dc:format><dc:type
           rdf:resource="http://purl.org/dc/dcmitype/StillImage" /><dc:title></dc:title></cc:Work></rdf:RDF></metadata><defs
     id="defs3121" /><sodipodi:namedview
     pagecolor="#ffffff"
     bordercolor="#666666"
     borderopacity="1"
     objecttolerance="10"
     gridtolerance="10"
     guidetolerance="10"
     inkscape:pageopacity="0"
     inkscape:pageshadow="2"
     inkscape:window-width="1246"
     inkscape:window-height="856"
     id="namedview3119"
     showgrid="false"
     inkscape:zoom="0.75461741"
     inkscape:cx="181.06439"
     inkscape:cy="184.96116"
     inkscape:window-x="0"
     inkscape:window-y="1"
     inkscape:window-maximized="0"
     inkscape:current-layer="Layer_1"
     fit-margin-top="0"
     fit-margin-left="0"
     fit-margin-right="0"
     fit-margin-bottom="0" /><g
     id="g3101"
     transform="translate(-116,-97.342)"><polygon
       stroke-miterlimit="10"
       points="217.641,301.842 198.852,367.354 272.812,301.842 301.991,301.842 283.201,367.354 357.161,301.842 670.5,301.842 670.5,102.842 121.5,102.842 121.5,301.842 "
       id="polygon3103"
       style="fill:#ffffff;stroke:#000000;stroke-width:11;stroke-miterlimit:10" /><g
       id="g3105"><path
         d="M 276.221,174.972 V 226.4 c 0,12.515 -9.973,22.683 -22.487,22.683 h -16.426 c -3.324,0 -6.257,-2.933 -6.257,-6.257 v -84.278 c 0,-3.52 2.933,-6.257 6.257,-6.257 h 16.426 c 12.514,-0.002 22.487,10.166 22.487,22.681 z m -12.515,0 c 0,-5.67 -4.497,-10.168 -9.973,-10.168 h -10.168 v 71.568 h 10.168 c 5.476,0 9.973,-4.498 9.973,-9.973 z"
         id="path3107"
         inkscape:connector-curvature="0" /><path
         d="m 337.618,184.358 c 0,6.453 -2.542,12.124 -7.04,16.23 4.498,4.106 7.04,9.973 7.04,16.425 v 9.386 c 0,12.515 -10.168,22.683 -22.487,22.683 h -16.426 c -3.52,0 -6.257,-2.933 -6.257,-6.257 v -84.278 c 0,-3.52 2.737,-6.257 6.257,-6.257 h 16.426 c 12.319,0 22.487,10.168 22.487,22.683 z m -12.514,-9.386 c 0,-5.67 -4.497,-10.168 -9.973,-10.168 h -10.168 v 29.527 h 10.168 c 5.476,0 9.973,-4.498 9.973,-9.973 z m -9.973,31.873 h -10.168 v 29.527 h 10.168 c 5.476,0 9.973,-4.498 9.973,-9.973 v -9.386 c 0,-5.67 -4.498,-10.168 -9.973,-10.168 z"
         id="path3109"
         inkscape:connector-curvature="0" /><path
         d="m 386.306,239.696 v 6.257 c 0,1.564 -1.369,3.129 -3.129,3.129 h -23.074 c -3.52,0 -6.257,-2.933 -6.257,-6.257 v -87.407 c 0,-1.76 1.368,-3.128 3.129,-3.128 h 6.257 c 1.564,0 3.129,1.369 3.129,3.128 v 81.15 h 16.816 c 1.76,-0.001 3.129,1.368 3.129,3.128 z"
         id="path3111"
         inkscape:connector-curvature="0" /><path
         d="m 429.128,181.425 v -6.648 c 0,-5.475 -4.497,-9.973 -9.973,-9.973 -5.475,0 -9.973,4.498 -9.973,9.973 0,2.542 0,2.542 0.587,3.324 l 27.181,35.979 c 4.692,6.257 4.692,6.257 4.692,12.515 0,12.319 -10.168,22.487 -22.487,22.487 -12.318,0 -22.487,-10.168 -22.487,-22.487 v -6.648 c 0,-1.76 1.369,-3.128 3.129,-3.128 h 6.258 c 1.76,0 3.128,1.369 3.128,3.128 v 6.648 c 0,5.475 4.498,9.973 9.973,9.973 5.476,0 9.973,-4.498 9.973,-9.973 0,-2.542 0,-2.542 -0.586,-3.324 l -27.181,-35.979 c -4.693,-6.257 -4.693,-6.257 -4.693,-12.515 0,-12.319 10.169,-22.487 22.487,-22.487 12.319,0 22.487,10.168 22.487,22.487 v 6.648 c 0,1.76 -1.368,3.128 -3.128,3.128 h -6.258 c -1.76,0 -3.129,-1.368 -3.129,-3.128 z"
         id="path3113"
         inkscape:connector-curvature="0" /><path
         d="m 501.086,174.776 v 9.386 c 0,12.515 -10.168,22.683 -22.487,22.683 h -10.168 v 39.108 c 0,1.564 -1.369,3.129 -3.129,3.129 h -6.257 c -1.564,0 -3.129,-1.564 -3.129,-3.129 V 206.845 194.33 155.417 c 0,-1.76 1.564,-3.128 3.129,-3.128 h 19.554 c 12.319,0 22.487,10.168 22.487,22.487 z m -12.515,0 c 0,-5.475 -4.497,-9.973 -9.973,-9.973 H 468.43 v 29.527 h 10.168 c 5.476,0 9.973,-4.498 9.973,-10.168 z"
         id="path3115"
         inkscape:connector-curvature="0" /><path
         d="m 558.378,184.162 c 0,6.453 -2.737,12.319 -7.04,16.426 4.303,4.106 7.04,9.777 7.04,16.23 v 29.135 c 0,1.564 -1.369,3.129 -3.129,3.129 h -6.257 c -1.76,0 -3.129,-1.564 -3.129,-3.129 v -29.135 c 0,-5.475 -4.497,-9.973 -10.168,-9.973 h -9.973 v 39.108 c 0,1.564 -1.369,3.129 -3.129,3.129 h -6.257 c -1.761,0 -3.129,-1.564 -3.129,-3.129 V 206.845 194.33 155.417 c 0,-1.76 1.368,-3.128 3.129,-3.128 h 6.257 c 1.76,0 3.129,1.369 3.129,3.128 v 38.913 h 9.973 c 5.671,0 10.168,-4.498 10.168,-10.168 v -28.745 c 0,-1.76 1.369,-3.128 3.129,-3.128 h 6.257 c 1.76,0 3.129,1.369 3.129,3.128 z"
         id="path3117"
         inkscape:connector-curvature="0" /></g></g></svg>