<?xml version="1.0" encoding="utf-8"?>
<!-- Generator: Adobe Illustrator 16.0.0, SVG Export Plug-In . SVG Version: 6.00 Build 0)  -->
<!DOCTYPE svg PUBLIC "-//W3C//DTD SVG 1.1//EN" "http://www.w3.org/Graphics/SVG/1.1/DTD/svg11.dtd">
<svg version="1.1" id="Layer_1" xmlns="http://www.w3.org/2000/svg" xmlns:xlink="http://www.w3.org/1999/xlink" x="0px" y="0px"
	 width="884px" height="188px" viewBox="0 0 884 188" enable-background="new 0 0 884 188" xml:space="preserve">
<g>
	<polygon fill="#FFFFFF" stroke="#000000" stroke-width="5" stroke-miterlimit="10" points="699.5,34.5 161.5,34.5 161.5,119.5 
		201.309,119.5 192.674,149.601 226.655,119.5 237.686,119.5 229.052,149.601 263.034,119.5 699.5,119.5 	"/>
	<g>
		<path d="M225.333,63.358v24.6c0,5.986-4.771,10.85-10.757,10.85h-7.857c-1.59,0-2.992-1.403-2.992-2.993V55.501
			c0-1.684,1.402-2.993,2.992-2.993h7.857C220.562,52.508,225.333,57.372,225.333,63.358z M219.347,63.358
			c0-2.713-2.151-4.864-4.771-4.864h-4.863v34.234h4.863c2.619,0,4.771-2.151,4.771-4.77V63.358z"/>
		<path d="M252.834,63.265v24.694c0,5.986-4.863,10.85-10.758,10.85c-5.986,0-10.85-4.864-10.85-10.85V63.265
			c0-5.893,4.863-10.756,10.85-10.756C247.971,52.508,252.834,57.372,252.834,63.265z M246.848,63.265
			c0-2.619-2.152-4.77-4.771-4.77c-2.711,0-4.863,2.151-4.863,4.77v24.694c0,2.712,2.152,4.864,4.863,4.864
			c2.619,0,4.771-2.151,4.771-4.864V63.265z"/>
		<path d="M280.334,54.005v33.954c0,5.986-4.863,10.85-10.756,10.85c-5.986,0-10.85-4.864-10.85-10.85V54.005
			c0-0.842,0.748-1.497,1.496-1.497h2.992c0.842,0,1.498,0.655,1.498,1.497v33.954c0,2.712,2.15,4.864,4.863,4.864
			c2.619,0,4.77-2.151,4.77-4.864V54.005c0-0.842,0.656-1.497,1.498-1.497h2.992C279.68,52.508,280.334,53.163,280.334,54.005z"/>
		<path d="M307.834,67.848c0,3.086-1.215,5.799-3.367,7.763c2.152,1.964,3.367,4.771,3.367,7.857v4.49
			c0,5.986-4.863,10.85-10.756,10.85h-7.857c-1.684,0-2.992-1.403-2.992-2.993V55.501c0-1.684,1.309-2.993,2.992-2.993h7.857
			c5.893,0,10.756,4.864,10.756,10.85V67.848z M301.848,63.358c0-2.713-2.15-4.864-4.77-4.864h-4.863v14.124h4.863
			c2.619,0,4.77-2.151,4.77-4.77V63.358z M297.078,78.604h-4.863v14.124h4.863c2.619,0,4.77-2.151,4.77-4.77v-4.49
			C301.848,80.756,299.697,78.604,297.078,78.604z"/>
		<path d="M329.254,94.319v2.993c0,0.749-0.654,1.497-1.496,1.497h-11.037c-1.684,0-2.992-1.403-2.992-2.993V54.005
			c0-0.842,0.654-1.497,1.496-1.497h2.992c0.748,0,1.498,0.655,1.498,1.497v38.817h8.043
			C328.6,92.822,329.254,93.477,329.254,94.319z"/>
		<path d="M342.07,58.495v14.124h8.139c0.842,0,1.496,0.655,1.496,1.497v2.993c0,0.842-0.654,1.496-1.496,1.496h-8.139v14.218h8.139
			c0.842,0,1.496,0.655,1.496,1.497v2.993c0,0.842-0.654,1.497-1.496,1.497h-11.131c-1.684,0-2.994-1.403-2.994-2.993V55.501
			c0-1.684,1.311-2.993,2.994-2.993h11.131c0.842,0,1.496,0.655,1.496,1.497v2.993c0,0.842-0.654,1.497-1.496,1.497H342.07z"/>
		<path d="M374.996,66.445v-3.18c0-2.619-2.15-4.77-4.77-4.77s-4.771,2.151-4.771,4.77c0,1.216,0,1.216,0.281,1.59l13.002,17.21
			c2.244,2.993,2.244,2.993,2.244,5.986c0,5.893-4.863,10.757-10.756,10.757c-5.895,0-10.758-4.864-10.758-10.757v-3.18
			c0-0.842,0.654-1.497,1.496-1.497h2.994c0.842,0,1.496,0.655,1.496,1.497v3.18c0,2.619,2.152,4.771,4.771,4.771
			s4.77-2.151,4.77-4.771c0-1.216,0-1.216-0.281-1.59l-13-17.211c-2.246-2.993-2.246-2.993-2.246-5.986
			c0-5.893,4.863-10.756,10.758-10.756c5.893,0,10.756,4.864,10.756,10.756v3.18c0,0.842-0.654,1.497-1.496,1.497h-2.994
			C375.65,67.941,374.996,67.287,374.996,66.445z"/>
		<path d="M409.418,63.265v4.49c0,5.986-4.863,10.85-10.756,10.85h-4.863v18.708c0,0.749-0.656,1.497-1.498,1.497h-2.992
			c-0.748,0-1.496-0.748-1.496-1.497V78.604v-5.986V54.005c0-0.842,0.748-1.497,1.496-1.497h9.354
			C404.555,52.508,409.418,57.372,409.418,63.265z M403.432,63.265c0-2.619-2.15-4.77-4.77-4.77h-4.863v14.124h4.863
			c2.619,0,4.77-2.151,4.77-4.864V63.265z"/>
		<path d="M421.205,58.495v14.124h8.139c0.842,0,1.496,0.655,1.496,1.497v2.993c0,0.842-0.654,1.496-1.496,1.496h-8.139v14.218
			h8.139c0.842,0,1.496,0.655,1.496,1.497v2.993c0,0.842-0.654,1.497-1.496,1.497h-11.131c-1.684,0-2.994-1.403-2.994-2.993V55.501
			c0-1.684,1.311-2.993,2.994-2.993h11.131c0.842,0,1.496,0.655,1.496,1.497v2.993c0,0.842-0.654,1.497-1.496,1.497H421.205z"/>
		<path d="M460.211,63.358v33.954c0,0.842-0.654,1.497-1.496,1.497h-2.994c-0.842,0-1.496-0.655-1.496-1.497V78.698h-9.635v18.614
			c0,0.842-0.654,1.497-1.496,1.497H440.1c-0.842,0-1.496-0.655-1.496-1.497V63.358c0-5.893,4.863-10.757,10.85-10.757
			C455.348,52.602,460.211,57.465,460.211,63.358z M454.225,63.358c0-2.619-2.152-4.771-4.771-4.771
			c-2.711,0-4.863,2.151-4.863,4.771v9.354h9.635V63.358z"/>
		<path d="M489.582,67.754c0,3.087-1.311,5.893-3.367,7.857c2.057,1.964,3.367,4.677,3.367,7.764v13.937
			c0,0.749-0.654,1.497-1.496,1.497h-2.994c-0.842,0-1.496-0.748-1.496-1.497V83.375c0-2.619-2.152-4.771-4.863-4.771h-4.771v18.708
			c0,0.749-0.654,1.497-1.496,1.497h-2.994c-0.842,0-1.496-0.748-1.496-1.497V78.604v-5.986V54.005c0-0.842,0.654-1.497,1.496-1.497
			h2.994c0.842,0,1.496,0.655,1.496,1.497v18.613h4.771c2.711,0,4.863-2.151,4.863-4.864v-13.75c0-0.842,0.654-1.497,1.496-1.497
			h2.994c0.842,0,1.496,0.655,1.496,1.497V67.754z"/>
		<path d="M531.955,66.539v-3.18c0-2.713-2.152-4.771-4.77-4.771c-2.619,0-4.771,2.058-4.771,4.771v24.787
			c0,2.619,2.152,4.771,4.771,4.771c2.617,0,4.77-2.151,4.77-4.771v-9.634h-3.273c-0.842,0-1.496-0.655-1.496-1.403v-2.993
			c0-0.842,0.654-1.497,1.496-1.497h7.764c0.842,0,1.496,0.655,1.496,1.497v14.03c0,5.893-4.863,10.663-10.756,10.663
			c-5.895,0-10.758-4.771-10.758-10.663V63.358c0-5.986,4.863-10.757,10.758-10.757c5.893,0,10.756,4.771,10.756,10.757v3.18
			c0,0.842-0.654,1.497-1.496,1.497h-2.994C532.609,68.035,531.955,67.38,531.955,66.539z"/>
		<path d="M567.312,63.358v33.954c0,0.842-0.654,1.497-1.496,1.497h-2.994c-0.842,0-1.496-0.655-1.496-1.497V78.698h-9.635v18.614
			c0,0.842-0.654,1.497-1.496,1.497h-2.994c-0.842,0-1.496-0.655-1.496-1.497V63.358c0-5.893,4.863-10.757,10.85-10.757
			C562.449,52.602,567.312,57.465,567.312,63.358z M561.326,63.358c0-2.619-2.152-4.771-4.771-4.771
			c-2.711,0-4.863,2.151-4.863,4.771v9.354h9.635V63.358z"/>
		<path d="M612.305,63.265v34.047c0,0.749-0.656,1.497-1.498,1.497h-2.992c-0.842,0-1.496-0.748-1.496-1.497V63.265
			c0-2.619-2.152-4.77-4.865-4.77c-2.619,0-4.77,2.151-4.77,4.77v34.047c0,0.749-0.654,1.497-1.496,1.497h-2.994
			c-0.842,0-1.496-0.748-1.496-1.497V63.265c0-2.619-2.152-4.77-4.771-4.77c-2.711,0-4.863,2.151-4.863,4.77v34.047
			c0,0.749-0.654,1.497-1.496,1.497h-2.994c-0.748,0-1.496-0.748-1.496-1.497V63.265c0-5.893,4.863-10.756,10.85-10.756
			c2.994,0,5.801,1.309,7.764,3.367c1.965-2.058,4.771-3.367,7.764-3.367C607.439,52.508,612.305,57.372,612.305,63.265z"/>
		<path d="M626.055,58.495v14.124h8.139c0.842,0,1.496,0.655,1.496,1.497v2.993c0,0.842-0.654,1.496-1.496,1.496h-8.139v14.218
			h8.139c0.842,0,1.496,0.655,1.496,1.497v2.993c0,0.842-0.654,1.497-1.496,1.497h-11.131c-1.684,0-2.994-1.403-2.994-2.993V55.501
			c0-1.684,1.311-2.993,2.994-2.993h11.131c0.842,0,1.496,0.655,1.496,1.497v2.993c0,0.842-0.654,1.497-1.496,1.497H626.055z"/>
		<path d="M657.109,66.445v-3.18c0-2.619-2.15-4.77-4.77-4.77s-4.771,2.151-4.771,4.77c0,1.216,0,1.216,0.281,1.59l13.002,17.21
			c2.244,2.993,2.244,2.993,2.244,5.986c0,5.893-4.863,10.757-10.756,10.757c-5.895,0-10.758-4.864-10.758-10.757v-3.18
			c0-0.842,0.654-1.497,1.496-1.497h2.994c0.842,0,1.496,0.655,1.496,1.497v3.18c0,2.619,2.152,4.771,4.771,4.771
			s4.77-2.151,4.77-4.771c0-1.216,0-1.216-0.281-1.59l-13-17.211c-2.246-2.993-2.246-2.993-2.246-5.986
			c0-5.893,4.863-10.756,10.758-10.756c5.893,0,10.756,4.864,10.756,10.756v3.18c0,0.842-0.654,1.497-1.496,1.497h-2.994
			C657.764,67.941,657.109,67.287,657.109,66.445z"/>
	</g>
</g>
</svg>
