<?xml version="1.0" encoding="utf-8"?>
<!-- Generator: Adobe Illustrator 16.0.0, SVG Export Plug-In . SVG Version: 6.00 Build 0)  -->
<!DOCTYPE svg PUBLIC "-//W3C//DTD SVG 1.1//EN" "http://www.w3.org/Graphics/SVG/1.1/DTD/svg11.dtd">
<svg version="1.1" id="Layer_1" xmlns="http://www.w3.org/2000/svg" xmlns:xlink="http://www.w3.org/1999/xlink" x="0px" y="0px"
	 width="916px" height="184px" viewBox="0 0 916 184" enable-background="new 0 0 916 184" xml:space="preserve">
<g>
	<polygon stroke="#000000" stroke-miterlimit="10" points="731.5,26.5 194.5,26.5 194.5,110.5 232.489,110.5 223.955,140.253 
		257.544,110.5 268.866,110.5 260.332,140.253 293.922,110.5 731.5,110.5 	"/>
	<g>
		<path fill="#FFFFFF" d="M258.313,55.67v24.6c0,5.986-4.771,10.85-10.757,10.85h-7.857c-1.59,0-2.992-1.403-2.992-2.993V47.813
			c0-1.684,1.402-2.993,2.992-2.993h7.857C253.543,44.82,258.313,49.684,258.313,55.67z M252.327,55.67
			c0-2.713-2.151-4.864-4.771-4.864h-4.863V85.04h4.863c2.619,0,4.771-2.151,4.771-4.77V55.67z"/>
		<path fill="#FFFFFF" d="M285.814,55.576V80.27c0,5.986-4.864,10.85-10.757,10.85c-5.986,0-10.851-4.864-10.851-10.85V55.576
			c0-5.893,4.864-10.756,10.851-10.756C280.95,44.82,285.814,49.684,285.814,55.576z M279.828,55.576c0-2.619-2.151-4.77-4.771-4.77
			c-2.713,0-4.864,2.151-4.864,4.77V80.27c0,2.712,2.151,4.864,4.864,4.864c2.619,0,4.771-2.151,4.771-4.864V55.576z"/>
		<path fill="#FFFFFF" d="M313.314,46.316V80.27c0,5.986-4.863,10.85-10.757,10.85c-5.986,0-10.85-4.864-10.85-10.85V46.316
			c0-0.842,0.748-1.497,1.496-1.497h2.993c0.842,0,1.497,0.655,1.497,1.497V80.27c0,2.712,2.151,4.864,4.863,4.864
			c2.619,0,4.771-2.151,4.771-4.864V46.316c0-0.842,0.655-1.497,1.497-1.497h2.993C312.66,44.82,313.314,45.475,313.314,46.316z"/>
		<path fill="#FFFFFF" d="M340.814,60.16c0,3.086-1.216,5.799-3.367,7.763c2.151,1.964,3.367,4.771,3.367,7.857v4.49
			c0,5.986-4.863,10.85-10.757,10.85h-7.856c-1.684,0-2.993-1.403-2.993-2.993V47.813c0-1.684,1.31-2.993,2.993-2.993h7.856
			c5.894,0,10.757,4.864,10.757,10.85V60.16z M334.828,55.67c0-2.713-2.151-4.864-4.771-4.864h-4.863V64.93h4.863
			c2.619,0,4.771-2.151,4.771-4.77V55.67z M330.058,70.916h-4.863V85.04h4.863c2.619,0,4.771-2.151,4.771-4.77v-4.49
			C334.828,73.067,332.677,70.916,330.058,70.916z"/>
		<path fill="#FFFFFF" d="M362.234,86.63v2.993c0,0.749-0.654,1.497-1.496,1.497h-11.037c-1.684,0-2.993-1.403-2.993-2.993V46.316
			c0-0.842,0.654-1.497,1.496-1.497h2.993c0.748,0,1.497,0.655,1.497,1.497v38.817h8.044
			C361.58,85.134,362.234,85.789,362.234,86.63z"/>
		<path fill="#FFFFFF" d="M373.18,50.806V64.93h8.138c0.842,0,1.496,0.655,1.496,1.497v2.993c0,0.842-0.654,1.496-1.496,1.496
			h-8.138v14.218h8.138c0.842,0,1.496,0.655,1.496,1.497v2.993c0,0.842-0.654,1.497-1.496,1.497h-11.131
			c-1.684,0-2.993-1.403-2.993-2.993V47.813c0-1.684,1.31-2.993,2.993-2.993h11.131c0.842,0,1.496,0.655,1.496,1.497v2.993
			c0,0.842-0.654,1.497-1.496,1.497H373.18z"/>
		<path fill="#FFFFFF" d="M404.235,58.756v-3.18c0-2.619-2.151-4.77-4.771-4.77s-4.771,2.151-4.771,4.77c0,1.216,0,1.216,0.28,1.59
			l13.002,17.21c2.245,2.993,2.245,2.993,2.245,5.986c0,5.893-4.864,10.757-10.757,10.757c-5.894,0-10.757-4.864-10.757-10.757
			v-3.18c0-0.842,0.654-1.497,1.496-1.497h2.993c0.842,0,1.497,0.655,1.497,1.497v3.18c0,2.619,2.151,4.771,4.771,4.771
			s4.771-2.151,4.771-4.771c0-1.216,0-1.216-0.281-1.59l-13.001-17.211c-2.245-2.993-2.245-2.993-2.245-5.986
			c0-5.893,4.863-10.756,10.757-10.756c5.893,0,10.757,4.864,10.757,10.756v3.18c0,0.842-0.655,1.497-1.497,1.497h-2.993
			C404.89,60.253,404.235,59.598,404.235,58.756z"/>
		<path fill="#FFFFFF" d="M438.657,55.576v4.49c0,5.986-4.864,10.85-10.757,10.85h-4.863v18.708c0,0.749-0.655,1.497-1.497,1.497
			h-2.993c-0.748,0-1.496-0.748-1.496-1.497V70.916V64.93V46.316c0-0.842,0.748-1.497,1.496-1.497h9.354
			C433.793,44.82,438.657,49.684,438.657,55.576z M432.671,55.576c0-2.619-2.151-4.77-4.771-4.77h-4.863V64.93h4.863
			c2.619,0,4.771-2.151,4.771-4.864V55.576z"/>
		<path fill="#FFFFFF" d="M450.444,50.806V64.93h8.138c0.842,0,1.496,0.655,1.496,1.497v2.993c0,0.842-0.654,1.496-1.496,1.496
			h-8.138v14.218h8.138c0.842,0,1.496,0.655,1.496,1.497v2.993c0,0.842-0.654,1.497-1.496,1.497h-11.131
			c-1.684,0-2.993-1.403-2.993-2.993V47.813c0-1.684,1.31-2.993,2.993-2.993h11.131c0.842,0,1.496,0.655,1.496,1.497v2.993
			c0,0.842-0.654,1.497-1.496,1.497H450.444z"/>
		<path fill="#FFFFFF" d="M487.578,55.67v33.954c0,0.842-0.654,1.497-1.496,1.497h-2.993c-0.842,0-1.497-0.655-1.497-1.497V71.01
			h-9.634v18.614c0,0.842-0.655,1.497-1.497,1.497h-2.993c-0.842,0-1.496-0.655-1.496-1.497V55.67
			c0-5.893,4.863-10.757,10.85-10.757C482.715,44.913,487.578,49.777,487.578,55.67z M481.592,55.67
			c0-2.619-2.151-4.771-4.771-4.771c-2.712,0-4.863,2.151-4.863,4.771v9.354h9.634V55.67z"/>
		<path fill="#FFFFFF" d="M516.949,60.066c0,3.087-1.31,5.893-3.367,7.857c2.058,1.964,3.367,4.677,3.367,7.764v13.937
			c0,0.749-0.654,1.497-1.496,1.497h-2.993c-0.842,0-1.497-0.748-1.497-1.497V75.687c0-2.619-2.151-4.771-4.863-4.771h-4.771v18.708
			c0,0.749-0.655,1.497-1.497,1.497h-2.993c-0.842,0-1.496-0.748-1.496-1.497V70.916V64.93V46.316c0-0.842,0.654-1.497,1.496-1.497
			h2.993c0.842,0,1.497,0.655,1.497,1.497V64.93h4.771c2.712,0,4.863-2.151,4.863-4.864v-13.75c0-0.842,0.655-1.497,1.497-1.497
			h2.993c0.842,0,1.496,0.655,1.496,1.497V60.066z"/>
		<path fill="#FFFFFF" d="M559.322,58.85v-3.18c0-2.713-2.151-4.771-4.77-4.771c-2.619,0-4.771,2.058-4.771,4.771v24.787
			c0,2.619,2.151,4.771,4.771,4.771c2.618,0,4.77-2.151,4.77-4.771v-9.634h-3.273c-0.842,0-1.496-0.655-1.496-1.403v-2.993
			c0-0.842,0.654-1.497,1.496-1.497h7.764c0.842,0,1.496,0.655,1.496,1.497v14.03c0,5.893-4.863,10.663-10.756,10.663
			c-5.894,0-10.757-4.771-10.757-10.663V55.67c0-5.986,4.863-10.757,10.757-10.757c5.893,0,10.756,4.771,10.756,10.757v3.18
			c0,0.842-0.654,1.497-1.496,1.497h-2.993C559.978,60.347,559.322,59.692,559.322,58.85z"/>
		<path fill="#FFFFFF" d="M594.68,55.67v33.954c0,0.842-0.654,1.497-1.496,1.497h-2.993c-0.842,0-1.497-0.655-1.497-1.497V71.01
			h-9.634v18.614c0,0.842-0.655,1.497-1.497,1.497h-2.993c-0.842,0-1.496-0.655-1.496-1.497V55.67
			c0-5.893,4.863-10.757,10.85-10.757C589.816,44.913,594.68,49.777,594.68,55.67z M588.693,55.67c0-2.619-2.151-4.771-4.771-4.771
			c-2.712,0-4.863,2.151-4.863,4.771v9.354h9.634V55.67z"/>
		<path fill="#FFFFFF" d="M639.672,55.576v34.047c0,0.749-0.655,1.497-1.497,1.497h-2.993c-0.842,0-1.496-0.748-1.496-1.497V55.576
			c0-2.619-2.151-4.77-4.864-4.77c-2.619,0-4.771,2.151-4.771,4.77v34.047c0,0.749-0.654,1.497-1.496,1.497h-2.993
			c-0.842,0-1.497-0.748-1.497-1.497V55.576c0-2.619-2.151-4.77-4.771-4.77c-2.712,0-4.863,2.151-4.863,4.77v34.047
			c0,0.749-0.655,1.497-1.497,1.497h-2.993c-0.748,0-1.496-0.748-1.496-1.497V55.576c0-5.893,4.863-10.756,10.85-10.756
			c2.993,0,5.8,1.309,7.764,3.367c1.965-2.058,4.771-3.367,7.764-3.367C634.808,44.82,639.672,49.684,639.672,55.576z"/>
		<path fill="#FFFFFF" d="M651.552,50.806V64.93h8.138c0.842,0,1.496,0.655,1.496,1.497v2.993c0,0.842-0.654,1.496-1.496,1.496
			h-8.138v14.218h8.138c0.842,0,1.496,0.655,1.496,1.497v2.993c0,0.842-0.654,1.497-1.496,1.497h-11.131
			c-1.684,0-2.993-1.403-2.993-2.993V47.813c0-1.684,1.31-2.993,2.993-2.993h11.131c0.842,0,1.496,0.655,1.496,1.497v2.993
			c0,0.842-0.654,1.497-1.496,1.497H651.552z"/>
		<path fill="#FFFFFF" d="M680.736,58.756v-3.18c0-2.619-2.151-4.77-4.771-4.77s-4.771,2.151-4.771,4.77c0,1.216,0,1.216,0.28,1.59
			l13.002,17.21c2.245,2.993,2.245,2.993,2.245,5.986c0,5.893-4.864,10.757-10.757,10.757c-5.894,0-10.757-4.864-10.757-10.757
			v-3.18c0-0.842,0.654-1.497,1.496-1.497h2.993c0.842,0,1.497,0.655,1.497,1.497v3.18c0,2.619,2.151,4.771,4.771,4.771
			s4.771-2.151,4.771-4.771c0-1.216,0-1.216-0.281-1.59l-13.001-17.211c-2.245-2.993-2.245-2.993-2.245-5.986
			c0-5.893,4.863-10.756,10.757-10.756c5.893,0,10.757,4.864,10.757,10.756v3.18c0,0.842-0.655,1.497-1.497,1.497h-2.993
			C681.391,60.253,680.736,59.598,680.736,58.756z"/>
	</g>
</g>
</svg>
