<?xml version="1.0" encoding="utf-8"?>
<!-- Generator: Adobe Illustrator 16.0.0, SVG Export Plug-In . SVG Version: 6.00 Build 0)  -->
<!DOCTYPE svg PUBLIC "-//W3C//DTD SVG 1.1//EN" "http://www.w3.org/Graphics/SVG/1.1/DTD/svg11.dtd">
<svg version="1.1" id="Layer_1" xmlns="http://www.w3.org/2000/svg" xmlns:xlink="http://www.w3.org/1999/xlink" x="0px" y="0px"
	 width="956px" height="712px" viewBox="0 0 956 712" enable-background="new 0 0 956 712" xml:space="preserve">
<g>
	<polygon fill="#FFFFFF" stroke="#000000" stroke-width="7" stroke-miterlimit="10" points="686.5,356.5 263.5,356.5 263.5,485.5 
		295.011,485.5 281.247,532.114 334.969,485.5 686.5,485.5 	"/>
	<polygon fill="#FFFFFF" stroke="#000000" stroke-width="7" stroke-miterlimit="10" points="763.5,205.5 186.5,205.5 186.5,334.5 
		698.15,334.5 750.257,380.657 737.018,334.5 763.5,334.5 	"/>
	<g>
		<path d="M292.09,250.205v37.719c0,9.179-7.314,16.636-16.493,16.636H263.55c-2.438,0-4.589-2.151-4.589-4.589v-61.813
			c0-2.582,2.151-4.589,4.589-4.589h12.047C284.776,233.568,292.09,241.026,292.09,250.205z M282.912,250.205
			c0-4.159-3.299-7.458-7.314-7.458h-7.458v52.491h7.458c4.016,0,7.314-3.298,7.314-7.314V250.205z"/>
		<path d="M334.253,250.062v37.862c0,9.179-7.458,16.636-16.493,16.636c-9.179,0-16.636-7.458-16.636-16.636v-37.862
			c0-9.035,7.458-16.493,16.636-16.493C326.795,233.568,334.253,241.026,334.253,250.062z M325.074,250.062
			c0-4.016-3.299-7.314-7.314-7.314c-4.159,0-7.458,3.299-7.458,7.314v37.862c0,4.159,3.298,7.458,7.458,7.458
			c4.016,0,7.314-3.299,7.314-7.458V250.062z"/>
		<path d="M376.416,235.863v52.061c0,9.179-7.458,16.636-16.493,16.636c-9.179,0-16.636-7.458-16.636-16.636v-52.061
			c0-1.291,1.147-2.295,2.294-2.295h4.589c1.291,0,2.295,1.004,2.295,2.295v52.061c0,4.159,3.298,7.458,7.458,7.458
			c4.016,0,7.314-3.299,7.314-7.458v-52.061c0-1.291,1.004-2.295,2.294-2.295h4.589
			C375.412,233.568,376.416,234.572,376.416,235.863z"/>
		<path d="M418.578,257.089c0,4.733-1.864,8.892-5.163,11.904c3.299,3.012,5.163,7.314,5.163,12.047v6.884
			c0,9.179-7.458,16.636-16.493,16.636h-12.047c-2.582,0-4.589-2.151-4.589-4.589v-61.813c0-2.582,2.008-4.589,4.589-4.589h12.047
			c9.035,0,16.493,7.458,16.493,16.637V257.089z M409.399,250.205c0-4.159-3.299-7.458-7.314-7.458h-7.458v21.656h7.458
			c4.016,0,7.314-3.299,7.314-7.314V250.205z M402.085,273.582h-7.458v21.656h7.458c4.016,0,7.314-3.298,7.314-7.314v-6.884
			C409.399,276.88,406.101,273.582,402.085,273.582z"/>
		<path d="M451.418,297.676v4.59c0,1.147-1.004,2.294-2.294,2.294H432.2c-2.582,0-4.589-2.151-4.589-4.589v-64.107
			c0-1.291,1.004-2.295,2.294-2.295h4.589c1.147,0,2.295,1.004,2.295,2.295v59.518h12.334
			C450.414,295.381,451.418,296.385,451.418,297.676z"/>
		<path d="M468.197,242.747v21.656h12.477c1.291,0,2.295,1.004,2.295,2.294v4.589c0,1.291-1.004,2.295-2.295,2.295h-12.477v21.799
			h12.477c1.291,0,2.295,1.004,2.295,2.294v4.59c0,1.291-1.004,2.294-2.295,2.294h-17.066c-2.582,0-4.589-2.151-4.589-4.589v-61.813
			c0-2.582,2.008-4.589,4.589-4.589h17.066c1.291,0,2.295,1.004,2.295,2.295v4.589c0,1.291-1.004,2.294-2.295,2.294H468.197z"/>
		<path d="M515.81,254.938v-4.876c0-4.016-3.299-7.314-7.314-7.314s-7.314,3.299-7.314,7.314c0,1.864,0,1.864,0.43,2.438
			l19.935,26.389c3.442,4.589,3.442,4.589,3.442,9.179c0,9.036-7.458,16.493-16.493,16.493c-9.035,0-16.493-7.458-16.493-16.493
			v-4.876c0-1.291,1.004-2.295,2.294-2.295h4.589c1.291,0,2.295,1.004,2.295,2.295v4.876c0,4.016,3.298,7.314,7.314,7.314
			s7.314-3.299,7.314-7.314c0-1.864,0-1.864-0.43-2.438l-19.935-26.389c-3.442-4.589-3.442-4.589-3.442-9.179
			c0-9.035,7.458-16.493,16.493-16.493c9.036,0,16.493,7.458,16.493,16.493v4.876c0,1.291-1.004,2.295-2.295,2.295h-4.589
			C516.814,257.232,515.81,256.229,515.81,254.938z"/>
		<path d="M568.586,250.062v6.884c0,9.179-7.458,16.637-16.493,16.637h-7.458v28.684c0,1.147-1.004,2.294-2.295,2.294h-4.589
			c-1.147,0-2.294-1.147-2.294-2.294v-28.684v-9.179v-28.54c0-1.291,1.147-2.295,2.294-2.295h14.342
			C561.128,233.568,568.586,241.026,568.586,250.062z M559.407,250.062c0-4.016-3.299-7.314-7.314-7.314h-7.458v21.656h7.458
			c4.016,0,7.314-3.299,7.314-7.458V250.062z"/>
		<path d="M586.655,242.747v21.656h12.477c1.291,0,2.295,1.004,2.295,2.294v4.589c0,1.291-1.004,2.295-2.295,2.295h-12.477v21.799
			h12.477c1.291,0,2.295,1.004,2.295,2.294v4.59c0,1.291-1.004,2.294-2.295,2.294h-17.066c-2.582,0-4.589-2.151-4.589-4.589v-61.813
			c0-2.582,2.008-4.589,4.589-4.589h17.066c1.291,0,2.295,1.004,2.295,2.295v4.589c0,1.291-1.004,2.294-2.295,2.294H586.655z"/>
		<path d="M643.59,250.205v52.061c0,1.291-1.004,2.294-2.295,2.294h-4.589c-1.291,0-2.294-1.004-2.294-2.294v-28.541H619.64v28.541
			c0,1.291-1.004,2.294-2.295,2.294h-4.589c-1.291,0-2.294-1.004-2.294-2.294v-52.061c0-9.036,7.458-16.493,16.636-16.493
			C636.133,233.712,643.59,241.169,643.59,250.205z M634.412,250.205c0-4.016-3.299-7.314-7.314-7.314
			c-4.159,0-7.458,3.298-7.458,7.314v14.341h14.772V250.205z"/>
		<path d="M688.621,256.945c0,4.733-2.008,9.036-5.163,12.047c3.155,3.012,5.163,7.171,5.163,11.903v21.37
			c0,1.147-1.004,2.294-2.295,2.294h-4.589c-1.291,0-2.294-1.147-2.294-2.294v-21.37c0-4.016-3.299-7.314-7.458-7.314h-7.314v28.684
			c0,1.147-1.004,2.294-2.295,2.294h-4.589c-1.291,0-2.294-1.147-2.294-2.294v-28.684v-9.179v-28.54
			c0-1.291,1.004-2.295,2.294-2.295h4.589c1.291,0,2.295,1.004,2.295,2.295v28.54h7.314c4.159,0,7.458-3.299,7.458-7.458v-21.082
			c0-1.291,1.004-2.295,2.294-2.295h4.589c1.291,0,2.295,1.004,2.295,2.295V256.945z"/>
	</g>
	<g>
		<path d="M388.75,410.038v-4.876c0-4.159-3.298-7.314-7.314-7.314c-4.016,0-7.314,3.155-7.314,7.314v38.005
			c0,4.016,3.298,7.314,7.314,7.314c4.016,0,7.314-3.299,7.314-7.314v-14.772h-5.02c-1.291,0-2.294-1.004-2.294-2.151v-4.589
			c0-1.291,1.004-2.294,2.294-2.294h11.904c1.291,0,2.294,1.004,2.294,2.294v21.513c0,9.035-7.458,16.35-16.493,16.35
			c-9.036,0-16.493-7.314-16.493-16.35v-38.005c0-9.179,7.458-16.493,16.493-16.493c9.035,0,16.493,7.314,16.493,16.493v4.876
			c0,1.291-1.004,2.295-2.294,2.295h-4.589C389.753,412.333,388.75,411.329,388.75,410.038z"/>
		<path d="M442.958,405.162v52.061c0,1.291-1.004,2.294-2.295,2.294h-4.589c-1.291,0-2.294-1.004-2.294-2.294v-28.541h-14.772
			v28.541c0,1.291-1.004,2.294-2.295,2.294h-4.589c-1.291,0-2.294-1.004-2.294-2.294v-52.061c0-9.036,7.458-16.493,16.636-16.493
			C435.5,388.669,442.958,396.126,442.958,405.162z M433.779,405.162c0-4.016-3.299-7.314-7.314-7.314
			c-4.159,0-7.458,3.298-7.458,7.314v14.341h14.772V405.162z"/>
		<path d="M511.939,405.019v52.204c0,1.147-1.004,2.294-2.295,2.294h-4.589c-1.291,0-2.294-1.147-2.294-2.294v-52.204
			c0-4.016-3.299-7.314-7.458-7.314c-4.016,0-7.314,3.299-7.314,7.314v52.204c0,1.147-1.004,2.294-2.295,2.294h-4.589
			c-1.291,0-2.294-1.147-2.294-2.294v-52.204c0-4.016-3.299-7.314-7.314-7.314c-4.159,0-7.458,3.299-7.458,7.314v52.204
			c0,1.147-1.004,2.294-2.295,2.294h-4.589c-1.147,0-2.294-1.147-2.294-2.294v-52.204c0-9.035,7.458-16.493,16.636-16.493
			c4.589,0,8.892,2.008,11.904,5.163c3.012-3.155,7.314-5.163,11.904-5.163C504.482,388.525,511.939,395.983,511.939,405.019z"/>
		<path d="M530.149,397.704v21.656h12.477c1.291,0,2.295,1.004,2.295,2.294v4.589c0,1.291-1.004,2.295-2.295,2.295h-12.477v21.799
			h12.477c1.291,0,2.295,1.004,2.295,2.294v4.59c0,1.291-1.004,2.294-2.295,2.294H525.56c-2.582,0-4.589-2.151-4.589-4.589v-61.813
			c0-2.582,2.008-4.589,4.589-4.589h17.066c1.291,0,2.295,1.004,2.295,2.295v4.589c0,1.291-1.004,2.294-2.295,2.294H530.149z"/>
		<path d="M574.894,409.895v-4.876c0-4.016-3.299-7.314-7.314-7.314s-7.314,3.299-7.314,7.314c0,1.864,0,1.864,0.43,2.438
			l19.935,26.389c3.442,4.589,3.442,4.589,3.442,9.179c0,9.036-7.458,16.493-16.493,16.493c-9.035,0-16.493-7.458-16.493-16.493
			v-4.876c0-1.291,1.004-2.295,2.294-2.295h4.589c1.291,0,2.295,1.004,2.295,2.295v4.876c0,4.016,3.298,7.314,7.314,7.314
			s7.314-3.299,7.314-7.314c0-1.864,0-1.864-0.43-2.438l-19.935-26.389c-3.442-4.589-3.442-4.589-3.442-9.179
			c0-9.035,7.458-16.493,16.493-16.493c9.036,0,16.493,7.458,16.493,16.493v4.876c0,1.291-1.004,2.295-2.295,2.295h-4.589
			C575.898,412.189,574.894,411.186,574.894,409.895z"/>
	</g>
</g>
</svg>
