<?xml version="1.0" encoding="utf-8"?>
<!-- Generator: Adobe Illustrator 16.0.0, SVG Export Plug-In . SVG Version: 6.00 Build 0)  -->
<!DOCTYPE svg PUBLIC "-//W3C//DTD SVG 1.1//EN" "http://www.w3.org/Graphics/SVG/1.1/DTD/svg11.dtd">
<svg version="1.1" id="Layer_1" xmlns="http://www.w3.org/2000/svg" xmlns:xlink="http://www.w3.org/1999/xlink" x="0px" y="0px"
	 width="1012px" height="716px" viewBox="0 0 1012 716" enable-background="new 0 0 1012 716" xml:space="preserve">
<g>
	<polygon stroke="#000000" stroke-width="2" stroke-miterlimit="10" points="734,359 325,359 325,484 358.083,484 344.832,530.194 
		395.234,485.548 393.558,484 734,484 	"/>
	<polygon stroke="#000000" stroke-width="2" stroke-miterlimit="10" points="808,213 251,213 251,338 742.4,338 792.512,382.389 
		779.779,338 808,338 	"/>
	<g>
		<path fill="#FFFFFF" d="M352.054,253.704v36.403c0,8.858-7.06,16.056-15.918,16.056H324.51c-2.354,0-4.43-2.076-4.43-4.429
			v-59.656c0-2.491,2.076-4.429,4.43-4.429h11.626C344.994,237.648,352.054,244.846,352.054,253.704z M343.195,253.704
			c0-4.014-3.184-7.197-7.06-7.197h-7.197v50.659h7.197c3.876,0,7.06-3.184,7.06-7.059V253.704z"/>
		<path fill="#FFFFFF" d="M392.748,253.566v36.541c0,8.858-7.197,16.056-15.918,16.056c-8.858,0-16.056-7.197-16.056-16.056v-36.541
			c0-8.72,7.197-15.917,16.056-15.917C385.551,237.648,392.748,244.846,392.748,253.566z M383.89,253.566
			c0-3.875-3.184-7.059-7.06-7.059c-4.014,0-7.197,3.184-7.197,7.059v36.541c0,4.014,3.184,7.197,7.197,7.197
			c3.876,0,7.06-3.184,7.06-7.197V253.566z"/>
		<path fill="#FFFFFF" d="M433.442,239.863v50.244c0,8.858-7.197,16.056-15.918,16.056c-8.858,0-16.056-7.197-16.056-16.056v-50.244
			c0-1.246,1.107-2.214,2.215-2.214h4.43c1.245,0,2.214,0.969,2.214,2.214v50.244c0,4.014,3.184,7.197,7.197,7.197
			c3.876,0,7.06-3.184,7.06-7.197v-50.244c0-1.246,0.969-2.214,2.215-2.214h4.429C432.474,237.648,433.442,238.617,433.442,239.863z
			"/>
		<path fill="#FFFFFF" d="M474.138,260.348c0,4.567-1.8,8.582-4.982,11.488c3.183,2.907,4.982,7.059,4.982,11.626v6.644
			c0,8.858-7.197,16.056-15.918,16.056h-11.626c-2.491,0-4.43-2.076-4.43-4.429v-59.656c0-2.491,1.938-4.429,4.43-4.429h11.626
			c8.721,0,15.918,7.197,15.918,16.056V260.348z M465.279,253.704c0-4.014-3.184-7.197-7.06-7.197h-7.197v20.9h7.197
			c3.876,0,7.06-3.184,7.06-7.059V253.704z M458.22,276.266h-7.197v20.9h7.197c3.876,0,7.06-3.184,7.06-7.059v-6.644
			C465.279,279.449,462.096,276.266,458.22,276.266z"/>
		<path fill="#FFFFFF" d="M505.835,299.519v4.43c0,1.107-0.969,2.214-2.215,2.214h-16.332c-2.491,0-4.43-2.076-4.43-4.429v-61.871
			c0-1.246,0.969-2.214,2.215-2.214h4.43c1.106,0,2.214,0.969,2.214,2.214v57.441h11.903
			C504.866,297.304,505.835,298.273,505.835,299.519z"/>
		<path fill="#FFFFFF" d="M522.03,246.507v20.9h12.042c1.246,0,2.215,0.969,2.215,2.214v4.429c0,1.246-0.969,2.215-2.215,2.215
			H522.03v21.039h12.042c1.246,0,2.215,0.969,2.215,2.214v4.43c0,1.246-0.969,2.214-2.215,2.214h-16.471
			c-2.491,0-4.43-2.076-4.43-4.429v-59.656c0-2.491,1.938-4.429,4.43-4.429h16.471c1.246,0,2.215,0.969,2.215,2.214v4.429
			c0,1.246-0.969,2.215-2.215,2.215H522.03z"/>
		<path fill="#FFFFFF" d="M567.984,258.272v-4.706c0-3.875-3.184-7.059-7.06-7.059c-3.875,0-7.059,3.184-7.059,7.059
			c0,1.799,0,1.799,0.415,2.353l19.239,25.468c3.322,4.429,3.322,4.429,3.322,8.858c0,8.72-7.197,15.917-15.918,15.917
			c-8.72,0-15.917-7.197-15.917-15.917v-4.706c0-1.245,0.969-2.214,2.215-2.214h4.429c1.246,0,2.215,0.969,2.215,2.214v4.706
			c0,3.875,3.184,7.059,7.059,7.059c3.876,0,7.06-3.184,7.06-7.059c0-1.799,0-1.799-0.415-2.353l-19.239-25.468
			c-3.322-4.429-3.322-4.429-3.322-8.858c0-8.72,7.197-15.917,15.917-15.917c8.721,0,15.918,7.197,15.918,15.917v4.706
			c0,1.246-0.969,2.214-2.215,2.214h-4.429C568.953,260.486,567.984,259.518,567.984,258.272z"/>
		<path fill="#FFFFFF" d="M618.922,253.566v6.644c0,8.858-7.197,16.056-15.918,16.056h-7.197v27.683
			c0,1.107-0.969,2.214-2.214,2.214h-4.43c-1.107,0-2.215-1.107-2.215-2.214v-27.683v-8.858v-27.544
			c0-1.246,1.107-2.214,2.215-2.214h13.841C611.725,237.648,618.922,244.846,618.922,253.566z M610.063,253.566
			c0-3.875-3.184-7.059-7.06-7.059h-7.197v20.9h7.197c3.876,0,7.06-3.184,7.06-7.198V253.566z"/>
		<path fill="#FFFFFF" d="M636.363,246.507v20.9h12.042c1.246,0,2.215,0.969,2.215,2.214v4.429c0,1.246-0.969,2.215-2.215,2.215
			h-12.042v21.039h12.042c1.246,0,2.215,0.969,2.215,2.214v4.43c0,1.246-0.969,2.214-2.215,2.214h-16.471
			c-2.491,0-4.43-2.076-4.43-4.429v-59.656c0-2.491,1.938-4.429,4.43-4.429h16.471c1.246,0,2.215,0.969,2.215,2.214v4.429
			c0,1.246-0.969,2.215-2.215,2.215H636.363z"/>
		<path fill="#FFFFFF" d="M691.315,253.704v50.244c0,1.246-0.969,2.214-2.215,2.214h-4.429c-1.246,0-2.215-0.969-2.215-2.214
			v-27.544H668.2v27.544c0,1.246-0.969,2.214-2.214,2.214h-4.43c-1.246,0-2.215-0.969-2.215-2.214v-50.244
			c0-8.72,7.197-15.917,16.056-15.917C684.118,237.787,691.315,244.984,691.315,253.704z M682.457,253.704
			c0-3.875-3.184-7.059-7.06-7.059c-4.014,0-7.197,3.184-7.197,7.059v13.841h14.257V253.704z"/>
		<path fill="#FFFFFF" d="M734.778,260.209c0,4.568-1.938,8.72-4.982,11.627c3.045,2.907,4.982,6.92,4.982,11.488v20.624
			c0,1.107-0.969,2.214-2.215,2.214h-4.429c-1.246,0-2.215-1.107-2.215-2.214v-20.624c0-3.875-3.184-7.059-7.197-7.059h-7.06v27.683
			c0,1.107-0.969,2.214-2.214,2.214h-4.43c-1.246,0-2.215-1.107-2.215-2.214v-27.683v-8.858v-27.544
			c0-1.246,0.969-2.214,2.215-2.214h4.43c1.245,0,2.214,0.969,2.214,2.214v27.544h7.06c4.014,0,7.197-3.184,7.197-7.198v-20.347
			c0-1.246,0.969-2.214,2.215-2.214h4.429c1.246,0,2.215,0.969,2.215,2.214V260.209z"/>
	</g>
	<g>
		<path fill="#FFFFFF" d="M445.35,407.974v-4.706c0-4.014-3.184-7.059-7.059-7.059c-3.876,0-7.06,3.045-7.06,7.059v36.68
			c0,3.875,3.184,7.059,7.06,7.059c3.875,0,7.059-3.183,7.059-7.059V425.69h-4.845c-1.245,0-2.214-0.969-2.214-2.076v-4.429
			c0-1.246,0.969-2.215,2.214-2.215h11.488c1.246,0,2.215,0.969,2.215,2.215v20.762c0,8.72-7.197,15.779-15.917,15.779
			c-8.721,0-15.918-7.059-15.918-15.779v-36.68c0-8.858,7.197-15.917,15.918-15.917c8.72,0,15.917,7.059,15.917,15.917v4.706
			c0,1.246-0.969,2.215-2.215,2.215h-4.429C446.318,410.188,445.35,409.219,445.35,407.974z"/>
		<path fill="#FFFFFF" d="M497.671,403.268v50.244c0,1.246-0.969,2.215-2.215,2.215h-4.429c-1.246,0-2.215-0.969-2.215-2.215
			v-27.544h-14.257v27.544c0,1.246-0.969,2.215-2.214,2.215h-4.43c-1.246,0-2.215-0.969-2.215-2.215v-50.244
			c0-8.72,7.197-15.917,16.056-15.917C490.474,387.35,497.671,394.548,497.671,403.268z M488.812,403.268
			c0-3.875-3.184-7.059-7.06-7.059c-4.014,0-7.197,3.184-7.197,7.059v13.841h14.257V403.268z"/>
		<path fill="#FFFFFF" d="M564.249,403.129v50.382c0,1.108-0.97,2.215-2.215,2.215h-4.43c-1.245,0-2.214-1.107-2.214-2.215v-50.382
			c0-3.875-3.184-7.059-7.198-7.059c-3.875,0-7.059,3.184-7.059,7.059v50.382c0,1.108-0.969,2.215-2.215,2.215h-4.429
			c-1.246,0-2.215-1.107-2.215-2.215v-50.382c0-3.875-3.184-7.059-7.06-7.059c-4.014,0-7.197,3.184-7.197,7.059v50.382
			c0,1.108-0.969,2.215-2.214,2.215h-4.43c-1.107,0-2.215-1.107-2.215-2.215v-50.382c0-8.72,7.197-15.917,16.056-15.917
			c4.43,0,8.582,1.938,11.488,4.983c2.907-3.045,7.06-4.983,11.488-4.983C557.051,387.212,564.249,394.409,564.249,403.129z"/>
		<path fill="#FFFFFF" d="M581.828,396.07v20.9h12.042c1.246,0,2.215,0.969,2.215,2.215v4.429c0,1.246-0.969,2.215-2.215,2.215
			h-12.042v21.039h12.042c1.246,0,2.215,0.969,2.215,2.215v4.429c0,1.246-0.969,2.215-2.215,2.215h-16.471
			c-2.491,0-4.43-2.076-4.43-4.429v-59.656c0-2.491,1.938-4.429,4.43-4.429h16.471c1.246,0,2.215,0.969,2.215,2.214v4.429
			c0,1.246-0.969,2.215-2.215,2.215H581.828z"/>
		<path fill="#FFFFFF" d="M625.015,407.835v-4.706c0-3.875-3.184-7.059-7.06-7.059c-3.875,0-7.059,3.184-7.059,7.059
			c0,1.799,0,1.799,0.415,2.353l19.239,25.468c3.322,4.429,3.322,4.429,3.322,8.858c0,8.72-7.197,15.917-15.918,15.917
			c-8.72,0-15.917-7.197-15.917-15.917v-4.706c0-1.246,0.969-2.214,2.215-2.214h4.429c1.246,0,2.215,0.969,2.215,2.214v4.706
			c0,3.875,3.184,7.059,7.059,7.059c3.876,0,7.06-3.184,7.06-7.059c0-1.799,0-1.799-0.415-2.353l-19.239-25.468
			c-3.322-4.429-3.322-4.429-3.322-8.858c0-8.72,7.197-15.917,15.917-15.917c8.721,0,15.918,7.197,15.918,15.917v4.706
			c0,1.246-0.969,2.214-2.215,2.214h-4.429C625.983,410.05,625.015,409.081,625.015,407.835z"/>
	</g>
</g>
</svg>
