<?xml version="1.0" encoding="UTF-8" standalone="no"?>
<!-- Generator: Adobe Illustrator 16.0.0, SVG Export Plug-In . SVG Version: 6.00 Build 0)  -->

<svg
   xmlns:dc="http://purl.org/dc/elements/1.1/"
   xmlns:cc="http://creativecommons.org/ns#"
   xmlns:rdf="http://www.w3.org/1999/02/22-rdf-syntax-ns#"
   xmlns:svg="http://www.w3.org/2000/svg"
   xmlns="http://www.w3.org/2000/svg"
   xmlns:sodipodi="http://sodipodi.sourceforge.net/DTD/sodipodi-0.dtd"
   xmlns:inkscape="http://www.inkscape.org/namespaces/inkscape"
   version="1.1"
   id="Layer_1"
   x="0px"
   y="0px"
   width="543"
   height="125.16737"
   viewBox="0 0 543 125.16737"
   enable-background="new 0 0 884 188"
   xml:space="preserve"
   sodipodi:docname="doublespeaksingleboxwhite.svg"
   inkscape:version="0.92.2 5c3e80d, 2017-08-06"><metadata
     id="metadata45"><rdf:RDF><cc:Work
         rdf:about=""><dc:format>image/svg+xml</dc:format><dc:type
           rdf:resource="http://purl.org/dc/dcmitype/StillImage" /><dc:title></dc:title></cc:Work></rdf:RDF></metadata><defs
     id="defs43" /><sodipodi:namedview
     pagecolor="#ffffff"
     bordercolor="#666666"
     borderopacity="1"
     objecttolerance="10"
     gridtolerance="10"
     guidetolerance="10"
     inkscape:pageopacity="0"
     inkscape:pageshadow="2"
     inkscape:window-width="1440"
     inkscape:window-height="855"
     id="namedview41"
     showgrid="false"
     fit-margin-top="0"
     fit-margin-left="0"
     fit-margin-right="0"
     fit-margin-bottom="0"
     inkscape:zoom="0.36651584"
     inkscape:cx="283"
     inkscape:cy="63.167368"
     inkscape:window-x="1"
     inkscape:window-y="1"
     inkscape:window-maximized="0"
     inkscape:current-layer="Layer_1" /><g
     id="g38"
     transform="translate(-159,-32)"><polygon
       stroke-miterlimit="10"
       points="161.5,119.5 201.309,119.5 192.674,149.601 226.655,119.5 237.686,119.5 229.052,149.601 263.034,119.5 699.5,119.5 699.5,34.5 161.5,34.5 "
       id="polygon2"
       style="fill:#ffffff;stroke:#000000;stroke-width:5;stroke-miterlimit:10" /><g
       id="g36"><path
         d="m 225.333,63.358 v 24.6 c 0,5.986 -4.771,10.85 -10.757,10.85 h -7.857 c -1.59,0 -2.992,-1.403 -2.992,-2.993 V 55.501 c 0,-1.684 1.402,-2.993 2.992,-2.993 h 7.857 c 5.986,0 10.757,4.864 10.757,10.85 z m -5.986,0 c 0,-2.713 -2.151,-4.864 -4.771,-4.864 h -4.863 v 34.234 h 4.863 c 2.619,0 4.771,-2.151 4.771,-4.77 z"
         id="path4"
         inkscape:connector-curvature="0" /><path
         d="m 252.834,63.265 v 24.694 c 0,5.986 -4.863,10.85 -10.758,10.85 -5.986,0 -10.85,-4.864 -10.85,-10.85 V 63.265 c 0,-5.893 4.863,-10.756 10.85,-10.756 5.895,-10e-4 10.758,4.863 10.758,10.756 z m -5.986,0 c 0,-2.619 -2.152,-4.77 -4.771,-4.77 -2.711,0 -4.863,2.151 -4.863,4.77 v 24.694 c 0,2.712 2.152,4.864 4.863,4.864 2.619,0 4.771,-2.151 4.771,-4.864 z"
         id="path6"
         inkscape:connector-curvature="0" /><path
         d="m 280.334,54.005 v 33.954 c 0,5.986 -4.863,10.85 -10.756,10.85 -5.986,0 -10.85,-4.864 -10.85,-10.85 V 54.005 c 0,-0.842 0.748,-1.497 1.496,-1.497 h 2.992 c 0.842,0 1.498,0.655 1.498,1.497 v 33.954 c 0,2.712 2.15,4.864 4.863,4.864 2.619,0 4.77,-2.151 4.77,-4.864 V 54.005 c 0,-0.842 0.656,-1.497 1.498,-1.497 h 2.992 c 0.843,0 1.497,0.655 1.497,1.497 z"
         id="path8"
         inkscape:connector-curvature="0" /><path
         d="m 307.834,67.848 c 0,3.086 -1.215,5.799 -3.367,7.763 2.152,1.964 3.367,4.771 3.367,7.857 v 4.49 c 0,5.986 -4.863,10.85 -10.756,10.85 h -7.857 c -1.684,0 -2.992,-1.403 -2.992,-2.993 V 55.501 c 0,-1.684 1.309,-2.993 2.992,-2.993 h 7.857 c 5.893,0 10.756,4.864 10.756,10.85 z m -5.986,-4.49 c 0,-2.713 -2.15,-4.864 -4.77,-4.864 h -4.863 v 14.124 h 4.863 c 2.619,0 4.77,-2.151 4.77,-4.77 z m -4.77,15.246 h -4.863 v 14.124 h 4.863 c 2.619,0 4.77,-2.151 4.77,-4.77 v -4.49 c 0,-2.712 -2.151,-4.864 -4.77,-4.864 z"
         id="path10"
         inkscape:connector-curvature="0" /><path
         d="m 329.254,94.319 v 2.993 c 0,0.749 -0.654,1.497 -1.496,1.497 h -11.037 c -1.684,0 -2.992,-1.403 -2.992,-2.993 V 54.005 c 0,-0.842 0.654,-1.497 1.496,-1.497 h 2.992 c 0.748,0 1.498,0.655 1.498,1.497 v 38.817 h 8.043 c 0.842,0 1.496,0.655 1.496,1.497 z"
         id="path12"
         inkscape:connector-curvature="0" /><path
         d="m 342.07,58.495 v 14.124 h 8.139 c 0.842,0 1.496,0.655 1.496,1.497 v 2.993 c 0,0.842 -0.654,1.496 -1.496,1.496 h -8.139 v 14.218 h 8.139 c 0.842,0 1.496,0.655 1.496,1.497 v 2.993 c 0,0.842 -0.654,1.497 -1.496,1.497 h -11.131 c -1.684,0 -2.994,-1.403 -2.994,-2.993 V 55.501 c 0,-1.684 1.311,-2.993 2.994,-2.993 h 11.131 c 0.842,0 1.496,0.655 1.496,1.497 v 2.993 c 0,0.842 -0.654,1.497 -1.496,1.497 z"
         id="path14"
         inkscape:connector-curvature="0" /><path
         d="m 374.996,66.445 v -3.18 c 0,-2.619 -2.15,-4.77 -4.77,-4.77 -2.62,0 -4.771,2.151 -4.771,4.77 0,1.216 0,1.216 0.281,1.59 l 13.002,17.21 c 2.244,2.993 2.244,2.993 2.244,5.986 0,5.893 -4.863,10.757 -10.756,10.757 -5.895,0 -10.758,-4.864 -10.758,-10.757 v -3.18 c 0,-0.842 0.654,-1.497 1.496,-1.497 h 2.994 c 0.842,0 1.496,0.655 1.496,1.497 v 3.18 c 0,2.619 2.152,4.771 4.771,4.771 2.619,0 4.77,-2.151 4.77,-4.771 0,-1.216 0,-1.216 -0.281,-1.59 l -13,-17.211 c -2.246,-2.993 -2.246,-2.993 -2.246,-5.986 0,-5.893 4.863,-10.756 10.758,-10.756 5.893,0 10.756,4.864 10.756,10.756 v 3.18 c 0,0.842 -0.654,1.497 -1.496,1.497 h -2.994 c -0.842,0 -1.496,-0.654 -1.496,-1.496 z"
         id="path16"
         inkscape:connector-curvature="0" /><path
         d="m 409.418,63.265 v 4.49 c 0,5.986 -4.863,10.85 -10.756,10.85 h -4.863 v 18.708 c 0,0.749 -0.656,1.497 -1.498,1.497 h -2.992 c -0.748,0 -1.496,-0.748 -1.496,-1.497 V 78.604 72.618 54.005 c 0,-0.842 0.748,-1.497 1.496,-1.497 h 9.354 c 5.892,0 10.755,4.864 10.755,10.757 z m -5.986,0 c 0,-2.619 -2.15,-4.77 -4.77,-4.77 h -4.863 v 14.124 h 4.863 c 2.619,0 4.77,-2.151 4.77,-4.864 z"
         id="path18"
         inkscape:connector-curvature="0" /><path
         d="m 421.205,58.495 v 14.124 h 8.139 c 0.842,0 1.496,0.655 1.496,1.497 v 2.993 c 0,0.842 -0.654,1.496 -1.496,1.496 h -8.139 v 14.218 h 8.139 c 0.842,0 1.496,0.655 1.496,1.497 v 2.993 c 0,0.842 -0.654,1.497 -1.496,1.497 h -11.131 c -1.684,0 -2.994,-1.403 -2.994,-2.993 V 55.501 c 0,-1.684 1.311,-2.993 2.994,-2.993 h 11.131 c 0.842,0 1.496,0.655 1.496,1.497 v 2.993 c 0,0.842 -0.654,1.497 -1.496,1.497 z"
         id="path20"
         inkscape:connector-curvature="0" /><path
         d="m 460.211,63.358 v 33.954 c 0,0.842 -0.654,1.497 -1.496,1.497 h -2.994 c -0.842,0 -1.496,-0.655 -1.496,-1.497 V 78.698 h -9.635 v 18.614 c 0,0.842 -0.654,1.497 -1.496,1.497 H 440.1 c -0.842,0 -1.496,-0.655 -1.496,-1.497 V 63.358 c 0,-5.893 4.863,-10.757 10.85,-10.757 5.894,10e-4 10.757,4.864 10.757,10.757 z m -5.986,0 c 0,-2.619 -2.152,-4.771 -4.771,-4.771 -2.711,0 -4.863,2.151 -4.863,4.771 v 9.354 h 9.635 v -9.354 z"
         id="path22"
         inkscape:connector-curvature="0" /><path
         d="m 489.582,67.754 c 0,3.087 -1.311,5.893 -3.367,7.857 2.057,1.964 3.367,4.677 3.367,7.764 v 13.937 c 0,0.749 -0.654,1.497 -1.496,1.497 h -2.994 c -0.842,0 -1.496,-0.748 -1.496,-1.497 V 83.375 c 0,-2.619 -2.152,-4.771 -4.863,-4.771 h -4.771 v 18.708 c 0,0.749 -0.654,1.497 -1.496,1.497 h -2.994 c -0.842,0 -1.496,-0.748 -1.496,-1.497 V 78.604 72.618 54.005 c 0,-0.842 0.654,-1.497 1.496,-1.497 h 2.994 c 0.842,0 1.496,0.655 1.496,1.497 v 18.613 h 4.771 c 2.711,0 4.863,-2.151 4.863,-4.864 v -13.75 c 0,-0.842 0.654,-1.497 1.496,-1.497 h 2.994 c 0.842,0 1.496,0.655 1.496,1.497 z"
         id="path24"
         inkscape:connector-curvature="0" /><path
         d="m 531.955,66.539 v -3.18 c 0,-2.713 -2.152,-4.771 -4.77,-4.771 -2.619,0 -4.771,2.058 -4.771,4.771 v 24.787 c 0,2.619 2.152,4.771 4.771,4.771 2.617,0 4.77,-2.151 4.77,-4.771 v -9.634 h -3.273 c -0.842,0 -1.496,-0.655 -1.496,-1.403 v -2.993 c 0,-0.842 0.654,-1.497 1.496,-1.497 h 7.764 c 0.842,0 1.496,0.655 1.496,1.497 v 14.03 c 0,5.893 -4.863,10.663 -10.756,10.663 -5.895,0 -10.758,-4.771 -10.758,-10.663 V 63.358 c 0,-5.986 4.863,-10.757 10.758,-10.757 5.893,0 10.756,4.771 10.756,10.757 v 3.18 c 0,0.842 -0.654,1.497 -1.496,1.497 h -2.994 c -0.843,0 -1.497,-0.655 -1.497,-1.496 z"
         id="path26"
         inkscape:connector-curvature="0" /><path
         d="m 567.312,63.358 v 33.954 c 0,0.842 -0.654,1.497 -1.496,1.497 h -2.994 c -0.842,0 -1.496,-0.655 -1.496,-1.497 V 78.698 h -9.635 v 18.614 c 0,0.842 -0.654,1.497 -1.496,1.497 h -2.994 c -0.842,0 -1.496,-0.655 -1.496,-1.497 V 63.358 c 0,-5.893 4.863,-10.757 10.85,-10.757 5.894,10e-4 10.757,4.864 10.757,10.757 z m -5.986,0 c 0,-2.619 -2.152,-4.771 -4.771,-4.771 -2.711,0 -4.863,2.151 -4.863,4.771 v 9.354 h 9.635 v -9.354 z"
         id="path28"
         inkscape:connector-curvature="0" /><path
         d="m 612.305,63.265 v 34.047 c 0,0.749 -0.656,1.497 -1.498,1.497 h -2.992 c -0.842,0 -1.496,-0.748 -1.496,-1.497 V 63.265 c 0,-2.619 -2.152,-4.77 -4.865,-4.77 -2.619,0 -4.77,2.151 -4.77,4.77 v 34.047 c 0,0.749 -0.654,1.497 -1.496,1.497 h -2.994 c -0.842,0 -1.496,-0.748 -1.496,-1.497 V 63.265 c 0,-2.619 -2.152,-4.77 -4.771,-4.77 -2.711,0 -4.863,2.151 -4.863,4.77 v 34.047 c 0,0.749 -0.654,1.497 -1.496,1.497 h -2.994 c -0.748,0 -1.496,-0.748 -1.496,-1.497 V 63.265 c 0,-5.893 4.863,-10.756 10.85,-10.756 2.994,0 5.801,1.309 7.764,3.367 1.965,-2.058 4.771,-3.367 7.764,-3.367 5.983,-10e-4 10.849,4.863 10.849,10.756 z"
         id="path30"
         inkscape:connector-curvature="0" /><path
         d="m 626.055,58.495 v 14.124 h 8.139 c 0.842,0 1.496,0.655 1.496,1.497 v 2.993 c 0,0.842 -0.654,1.496 -1.496,1.496 h -8.139 v 14.218 h 8.139 c 0.842,0 1.496,0.655 1.496,1.497 v 2.993 c 0,0.842 -0.654,1.497 -1.496,1.497 h -11.131 c -1.684,0 -2.994,-1.403 -2.994,-2.993 V 55.501 c 0,-1.684 1.311,-2.993 2.994,-2.993 h 11.131 c 0.842,0 1.496,0.655 1.496,1.497 v 2.993 c 0,0.842 -0.654,1.497 -1.496,1.497 z"
         id="path32"
         inkscape:connector-curvature="0" /><path
         d="m 657.109,66.445 v -3.18 c 0,-2.619 -2.15,-4.77 -4.77,-4.77 -2.62,0 -4.771,2.151 -4.771,4.77 0,1.216 0,1.216 0.281,1.59 l 13.002,17.21 c 2.244,2.993 2.244,2.993 2.244,5.986 0,5.893 -4.863,10.757 -10.756,10.757 -5.895,0 -10.758,-4.864 -10.758,-10.757 v -3.18 c 0,-0.842 0.654,-1.497 1.496,-1.497 h 2.994 c 0.842,0 1.496,0.655 1.496,1.497 v 3.18 c 0,2.619 2.152,4.771 4.771,4.771 2.619,0 4.77,-2.151 4.77,-4.771 0,-1.216 0,-1.216 -0.281,-1.59 l -13,-17.211 c -2.246,-2.993 -2.246,-2.993 -2.246,-5.986 0,-5.893 4.863,-10.756 10.758,-10.756 5.893,0 10.756,4.864 10.756,10.756 v 3.18 c 0,0.842 -0.654,1.497 -1.496,1.497 h -2.994 c -0.841,0 -1.496,-0.654 -1.496,-1.496 z"
         id="path34"
         inkscape:connector-curvature="0" /></g></g></svg>