<?xml version="1.0" encoding="utf-8"?>
<!-- Generator: Adobe Illustrator 16.0.0, SVG Export Plug-In . SVG Version: 6.00 Build 0)  -->
<!DOCTYPE svg PUBLIC "-//W3C//DTD SVG 1.1//EN" "http://www.w3.org/Graphics/SVG/1.1/DTD/svg11.dtd">
<svg version="1.1" id="Layer_1" xmlns="http://www.w3.org/2000/svg" xmlns:xlink="http://www.w3.org/1999/xlink" x="0px" y="0px"
	 width="872px" height="732px" viewBox="0 0 872 732" enable-background="new 0 0 872 732" xml:space="preserve">
<g>
	<polygon stroke="#000000" stroke-width="4" stroke-miterlimit="10" points="727,182 143,182 143,478 224.354,478 196.876,573.798 
		303.688,479.187 302.401,478 364.762,478 337.285,573.798 444.096,479.187 442.811,478 727,478 	"/>
	<g>
		<path fill="#FFFFFF" d="M339.638,265.301v121.378c0,29.537-23.538,53.536-53.075,53.536h-38.768
			c-7.846,0-14.769-6.923-14.769-14.769V226.533c0-8.308,6.923-14.769,14.769-14.769h38.768
			C316.1,211.764,339.638,235.763,339.638,265.301z M310.101,265.301c0-13.385-10.615-24-23.538-24h-23.999v168.916h23.999
			c12.922,0,23.538-10.615,23.538-23.538V265.301z"/>
		<path fill="#FFFFFF" d="M459.168,280.53v-15.691c0-12.923-10.615-23.538-23.538-23.538s-23.537,10.615-23.537,23.538
			c0,6,0,6,1.384,7.846l64.151,84.919c11.077,14.769,11.077,14.769,11.077,29.537c0,29.076-23.999,53.075-53.075,53.075
			s-53.074-23.999-53.074-53.075v-15.691c0-4.154,3.23-7.384,7.384-7.384h14.769c4.153,0,7.384,3.23,7.384,7.384v15.691
			c0,12.923,10.615,23.538,23.537,23.538s23.538-10.615,23.538-23.538c0-6,0-6-1.385-7.846l-64.151-84.919
			c-11.076-14.769-11.076-14.769-11.076-29.537c0-29.076,23.999-53.075,53.074-53.075s53.075,23.999,53.075,53.075v15.691
			c0,4.154-3.231,7.384-7.384,7.384h-14.769C462.399,287.915,459.168,284.684,459.168,280.53z"/>
		<path fill="#FFFFFF" d="M608.238,280.992v-15.691c0-13.385-10.615-23.538-23.538-23.538s-23.538,10.153-23.538,23.538v122.302
			c0,12.922,10.615,23.537,23.538,23.537s23.538-10.615,23.538-23.537v-47.536h-16.153c-4.154,0-7.384-3.231-7.384-6.923v-14.769
			c0-4.154,3.23-7.385,7.384-7.385h38.306c4.153,0,7.384,3.231,7.384,7.385v69.228c0,29.075-23.999,52.613-53.075,52.613
			s-53.075-23.538-53.075-52.613V265.301c0-29.538,23.999-53.075,53.075-53.075s53.075,23.538,53.075,53.075v15.691
			c0,4.154-3.231,7.384-7.384,7.384h-14.769C611.468,288.376,608.238,285.146,608.238,280.992z"/>
	</g>
</g>
</svg>
